<svg width="262" height="22" viewBox="0 0 262 22" fill="none" xmlns="http://www.w3.org/2000/svg">
<path d="M3.732 15.12C3.172 15.12 2.688 15.052 2.28 14.916C1.872 14.78 1.532 14.604 1.26 14.388C0.996 14.164 0.796 13.924 0.66 13.668C0.524 13.404 0.452 13.144 0.444 12.888C0.444 12.816 0.468 12.76 0.516 12.72C0.572 12.672 0.636 12.648 0.708 12.648H1.788C1.868 12.648 1.936 12.664 1.992 12.696C2.048 12.728 2.096 12.792 2.136 12.888C2.208 13.104 2.324 13.276 2.484 13.404C2.652 13.532 2.844 13.624 3.06 13.68C3.276 13.728 3.504 13.752 3.744 13.752C4.224 13.752 4.604 13.64 4.884 13.416C5.172 13.184 5.316 12.856 5.316 12.432C5.316 12.008 5.184 11.704 4.92 11.52C4.656 11.328 4.288 11.232 3.816 11.232H2.58C2.492 11.232 2.42 11.208 2.364 11.16C2.308 11.104 2.28 11.032 2.28 10.944V10.44C2.28 10.36 2.296 10.292 2.328 10.236C2.368 10.172 2.408 10.12 2.448 10.08L4.596 7.98H1.164C1.076 7.98 1.004 7.952 0.948 7.896C0.9 7.84 0.876 7.772 0.876 7.692V6.9C0.876 6.812 0.9 6.74 0.948 6.684C1.004 6.628 1.076 6.6 1.164 6.6H6.312C6.4 6.6 6.472 6.628 6.528 6.684C6.584 6.74 6.612 6.812 6.612 6.9V7.62C6.612 7.692 6.596 7.756 6.564 7.812C6.532 7.868 6.496 7.916 6.456 7.956L4.38 10.092L4.524 10.104C5.012 10.144 5.444 10.256 5.82 10.44C6.204 10.616 6.5 10.876 6.708 11.22C6.924 11.564 7.032 11.996 7.032 12.516C7.032 13.06 6.888 13.528 6.6 13.92C6.32 14.304 5.932 14.6 5.436 14.808C4.94 15.016 4.372 15.12 3.732 15.12ZM12.3586 15C12.2786 15 12.2106 14.972 12.1546 14.916C12.0986 14.86 12.0706 14.792 12.0706 14.712V13.176H8.26659C8.17859 13.176 8.10659 13.148 8.05059 13.092C8.00259 13.036 7.97859 12.968 7.97859 12.888V12.072C7.97859 12.024 7.98659 11.968 8.00259 11.904C8.02659 11.832 8.06259 11.768 8.11059 11.712L11.6506 6.804C11.7546 6.668 11.9026 6.6 12.0946 6.6H13.4026C13.4826 6.6 13.5506 6.628 13.6066 6.684C13.6626 6.74 13.6906 6.808 13.6906 6.888V11.76H14.7586C14.8546 11.76 14.9266 11.788 14.9746 11.844C15.0306 11.892 15.0586 11.96 15.0586 12.048V12.888C15.0586 12.968 15.0306 13.036 14.9746 13.092C14.9186 13.148 14.8506 13.176 14.7706 13.176H13.6906V14.712C13.6906 14.792 13.6626 14.86 13.6066 14.916C13.5506 14.972 13.4826 15 13.4026 15H12.3586ZM9.64659 11.808H12.1066V8.34L9.64659 11.808ZM19.3529 10.8C19.2729 10.8 19.2049 10.772 19.1489 10.716C19.0929 10.66 19.0649 10.592 19.0649 10.512V9.372C19.0649 9.284 19.0929 9.212 19.1489 9.156C19.2049 9.1 19.2729 9.072 19.3529 9.072H20.5409C20.6289 9.072 20.7009 9.1 20.7569 9.156C20.8129 9.212 20.8409 9.284 20.8409 9.372V10.512C20.8409 10.592 20.8129 10.66 20.7569 10.716C20.7009 10.772 20.6289 10.8 20.5409 10.8H19.3529ZM19.3529 15C19.2729 15 19.2049 14.972 19.1489 14.916C19.0929 14.86 19.0649 14.792 19.0649 14.712V13.572C19.0649 13.484 19.0929 13.412 19.1489 13.356C19.2049 13.3 19.2729 13.272 19.3529 13.272H20.5409C20.6289 13.272 20.7009 13.3 20.7569 13.356C20.8129 13.412 20.8409 13.484 20.8409 13.572V14.712C20.8409 14.792 20.8129 14.86 20.7569 14.916C20.7009 14.972 20.6289 15 20.5409 15H19.3529ZM28.4001 15.12C27.8321 15.12 27.3481 15.036 26.9481 14.868C26.5481 14.7 26.2201 14.468 25.9641 14.172C25.7081 13.876 25.5161 13.536 25.3881 13.152C25.2601 12.76 25.1841 12.344 25.1601 11.904C25.1521 11.688 25.1441 11.452 25.1361 11.196C25.1361 10.932 25.1361 10.668 25.1361 10.404C25.1441 10.14 25.1521 9.896 25.1601 9.672C25.1761 9.232 25.2521 8.82 25.3881 8.436C25.5241 8.044 25.7201 7.704 25.9761 7.416C26.2401 7.128 26.5721 6.9 26.9721 6.732C27.3721 6.564 27.8481 6.48 28.4001 6.48C28.9601 6.48 29.4401 6.564 29.8401 6.732C30.2401 6.9 30.5681 7.128 30.8241 7.416C31.0881 7.704 31.2841 8.044 31.4121 8.436C31.5481 8.82 31.6241 9.232 31.6401 9.672C31.6561 9.896 31.6641 10.14 31.6641 10.404C31.6641 10.668 31.6641 10.932 31.6641 11.196C31.6641 11.452 31.6561 11.688 31.6401 11.904C31.6241 12.344 31.5521 12.76 31.4241 13.152C31.2961 13.536 31.1041 13.876 30.8481 14.172C30.5921 14.468 30.2601 14.7 29.8521 14.868C29.4521 15.036 28.9681 15.12 28.4001 15.12ZM28.4001 13.74C28.9201 13.74 29.3001 13.572 29.5401 13.236C29.7881 12.892 29.9161 12.428 29.9241 11.844C29.9401 11.612 29.9481 11.38 29.9481 11.148C29.9481 10.908 29.9481 10.668 29.9481 10.428C29.9481 10.188 29.9401 9.96 29.9241 9.744C29.9161 9.176 29.7881 8.72 29.5401 8.376C29.3001 8.024 28.9201 7.848 28.4001 7.848C27.8881 7.848 27.5081 8.024 27.2601 8.376C27.0201 8.72 26.8921 9.176 26.8761 9.744C26.8761 9.96 26.8721 10.188 26.8641 10.428C26.8641 10.668 26.8641 10.908 26.8641 11.148C26.8721 11.38 26.8761 11.612 26.8761 11.844C26.8921 12.428 27.0241 12.892 27.2721 13.236C27.5201 13.572 27.8961 13.74 28.4001 13.74ZM36.0828 15.132C35.3948 15.132 34.8148 15.02 34.3428 14.796C33.8708 14.564 33.5108 14.264 33.2628 13.896C33.0228 13.528 32.8948 13.136 32.8788 12.72C32.8708 12.648 32.8908 12.592 32.9388 12.552C32.9948 12.504 33.0588 12.48 33.1308 12.48H34.2468C34.3348 12.48 34.4068 12.5 34.4628 12.54C34.5268 12.572 34.5748 12.632 34.6068 12.72C34.6868 12.96 34.7988 13.156 34.9428 13.308C35.0948 13.46 35.2668 13.572 35.4588 13.644C35.6588 13.716 35.8668 13.752 36.0828 13.752C36.3708 13.752 36.6308 13.696 36.8628 13.584C37.1028 13.464 37.2948 13.288 37.4388 13.056C37.5828 12.824 37.6548 12.54 37.6548 12.204C37.6548 11.908 37.5868 11.652 37.4508 11.436C37.3148 11.22 37.1268 11.052 36.8868 10.932C36.6548 10.804 36.3868 10.74 36.0828 10.74C35.8588 10.74 35.6748 10.768 35.5308 10.824C35.3868 10.88 35.2628 10.944 35.1588 11.016C35.0628 11.088 34.9748 11.152 34.8948 11.208C34.8228 11.264 34.7388 11.292 34.6428 11.292H33.5388C33.4668 11.292 33.4028 11.268 33.3468 11.22C33.2988 11.164 33.2748 11.1 33.2748 11.028L33.6948 6.924C33.7028 6.82 33.7388 6.74 33.8028 6.684C33.8668 6.628 33.9428 6.6 34.0308 6.6H38.5428C38.6228 6.6 38.6908 6.628 38.7468 6.684C38.8028 6.74 38.8308 6.808 38.8308 6.888V7.692C38.8308 7.772 38.8028 7.84 38.7468 7.896C38.6908 7.952 38.6228 7.98 38.5428 7.98H35.0748L34.8828 9.936C35.0268 9.84 35.2188 9.748 35.4588 9.66C35.6988 9.572 36.0308 9.528 36.4548 9.528C36.8388 9.528 37.2028 9.592 37.5468 9.72C37.8988 9.84 38.2108 10.02 38.4828 10.26C38.7548 10.492 38.9668 10.776 39.1188 11.112C39.2788 11.44 39.3588 11.816 39.3588 12.24C39.3588 12.824 39.2228 13.332 38.9508 13.764C38.6788 14.196 38.2988 14.532 37.8108 14.772C37.3228 15.012 36.7468 15.132 36.0828 15.132Z" fill="#9CA4AB"/>
<path opacity="0.12" d="M48 11L190 11" stroke="white" stroke-width="6" stroke-linecap="round"/>
<path opacity="0.16" d="M48 11L145.208 11" stroke="white" stroke-width="6" stroke-linecap="round"/>
<path d="M48 11L113.758 11" stroke="#00925D" stroke-width="6" stroke-linecap="round"/>
<ellipse cx="119.511" cy="11" rx="5.10791" ry="5" fill="#00925D"/>
<path d="M201.936 15.12C201.368 15.12 200.884 15.036 200.484 14.868C200.084 14.7 199.756 14.468 199.5 14.172C199.244 13.876 199.052 13.536 198.924 13.152C198.796 12.76 198.72 12.344 198.696 11.904C198.688 11.688 198.68 11.452 198.672 11.196C198.672 10.932 198.672 10.668 198.672 10.404C198.68 10.14 198.688 9.896 198.696 9.672C198.712 9.232 198.788 8.82 198.924 8.436C199.06 8.044 199.256 7.704 199.512 7.416C199.776 7.128 200.108 6.9 200.508 6.732C200.908 6.564 201.384 6.48 201.936 6.48C202.496 6.48 202.976 6.564 203.376 6.732C203.776 6.9 204.104 7.128 204.36 7.416C204.624 7.704 204.82 8.044 204.948 8.436C205.084 8.82 205.16 9.232 205.176 9.672C205.192 9.896 205.2 10.14 205.2 10.404C205.2 10.668 205.2 10.932 205.2 11.196C205.2 11.452 205.192 11.688 205.176 11.904C205.16 12.344 205.088 12.76 204.96 13.152C204.832 13.536 204.64 13.876 204.384 14.172C204.128 14.468 203.796 14.7 203.388 14.868C202.988 15.036 202.504 15.12 201.936 15.12ZM201.936 13.74C202.456 13.74 202.836 13.572 203.076 13.236C203.324 12.892 203.452 12.428 203.46 11.844C203.476 11.612 203.484 11.38 203.484 11.148C203.484 10.908 203.484 10.668 203.484 10.428C203.484 10.188 203.476 9.96 203.46 9.744C203.452 9.176 203.324 8.72 203.076 8.376C202.836 8.024 202.456 7.848 201.936 7.848C201.424 7.848 201.044 8.024 200.796 8.376C200.556 8.72 200.428 9.176 200.412 9.744C200.412 9.96 200.408 10.188 200.4 10.428C200.4 10.668 200.4 10.908 200.4 11.148C200.408 11.38 200.412 11.612 200.412 11.844C200.428 12.428 200.56 12.892 200.808 13.236C201.056 13.572 201.432 13.74 201.936 13.74ZM209.883 15.12C209.315 15.12 208.831 15.036 208.431 14.868C208.031 14.7 207.703 14.468 207.447 14.172C207.191 13.876 206.999 13.536 206.871 13.152C206.743 12.76 206.667 12.344 206.643 11.904C206.635 11.688 206.627 11.452 206.619 11.196C206.619 10.932 206.619 10.668 206.619 10.404C206.627 10.14 206.635 9.896 206.643 9.672C206.659 9.232 206.735 8.82 206.871 8.436C207.007 8.044 207.203 7.704 207.459 7.416C207.723 7.128 208.055 6.9 208.455 6.732C208.855 6.564 209.331 6.48 209.883 6.48C210.443 6.48 210.923 6.564 211.323 6.732C211.723 6.9 212.051 7.128 212.307 7.416C212.571 7.704 212.767 8.044 212.895 8.436C213.031 8.82 213.107 9.232 213.123 9.672C213.139 9.896 213.147 10.14 213.147 10.404C213.147 10.668 213.147 10.932 213.147 11.196C213.147 11.452 213.139 11.688 213.123 11.904C213.107 12.344 213.035 12.76 212.907 13.152C212.779 13.536 212.587 13.876 212.331 14.172C212.075 14.468 211.743 14.7 211.335 14.868C210.935 15.036 210.451 15.12 209.883 15.12ZM209.883 13.74C210.403 13.74 210.783 13.572 211.023 13.236C211.271 12.892 211.399 12.428 211.407 11.844C211.423 11.612 211.431 11.38 211.431 11.148C211.431 10.908 211.431 10.668 211.431 10.428C211.431 10.188 211.423 9.96 211.407 9.744C211.399 9.176 211.271 8.72 211.023 8.376C210.783 8.024 210.403 7.848 209.883 7.848C209.371 7.848 208.991 8.024 208.743 8.376C208.503 8.72 208.375 9.176 208.359 9.744C208.359 9.96 208.355 10.188 208.347 10.428C208.347 10.668 208.347 10.908 208.347 11.148C208.355 11.38 208.359 11.612 208.359 11.844C208.375 12.428 208.507 12.892 208.755 13.236C209.003 13.572 209.379 13.74 209.883 13.74ZM217.74 10.8C217.66 10.8 217.592 10.772 217.536 10.716C217.48 10.66 217.452 10.592 217.452 10.512V9.372C217.452 9.284 217.48 9.212 217.536 9.156C217.592 9.1 217.66 9.072 217.74 9.072H218.928C219.016 9.072 219.088 9.1 219.144 9.156C219.2 9.212 219.228 9.284 219.228 9.372V10.512C219.228 10.592 219.2 10.66 219.144 10.716C219.088 10.772 219.016 10.8 218.928 10.8H217.74ZM217.74 15C217.66 15 217.592 14.972 217.536 14.916C217.48 14.86 217.452 14.792 217.452 14.712V13.572C217.452 13.484 217.48 13.412 217.536 13.356C217.592 13.3 217.66 13.272 217.74 13.272H218.928C219.016 13.272 219.088 13.3 219.144 13.356C219.2 13.412 219.228 13.484 219.228 13.572V14.712C219.228 14.792 219.2 14.86 219.144 14.916C219.088 14.972 219.016 15 218.928 15H217.74ZM226.523 15.132C225.835 15.132 225.255 15.02 224.783 14.796C224.311 14.564 223.951 14.264 223.703 13.896C223.463 13.528 223.335 13.136 223.319 12.72C223.311 12.648 223.331 12.592 223.379 12.552C223.435 12.504 223.499 12.48 223.571 12.48H224.687C224.775 12.48 224.847 12.5 224.903 12.54C224.967 12.572 225.015 12.632 225.047 12.72C225.127 12.96 225.239 13.156 225.383 13.308C225.535 13.46 225.707 13.572 225.899 13.644C226.099 13.716 226.307 13.752 226.523 13.752C226.811 13.752 227.071 13.696 227.303 13.584C227.543 13.464 227.735 13.288 227.879 13.056C228.023 12.824 228.095 12.54 228.095 12.204C228.095 11.908 228.027 11.652 227.891 11.436C227.755 11.22 227.567 11.052 227.327 10.932C227.095 10.804 226.827 10.74 226.523 10.74C226.299 10.74 226.115 10.768 225.971 10.824C225.827 10.88 225.703 10.944 225.599 11.016C225.503 11.088 225.415 11.152 225.335 11.208C225.263 11.264 225.179 11.292 225.083 11.292H223.979C223.907 11.292 223.843 11.268 223.787 11.22C223.739 11.164 223.715 11.1 223.715 11.028L224.135 6.924C224.143 6.82 224.179 6.74 224.243 6.684C224.307 6.628 224.383 6.6 224.471 6.6H228.983C229.063 6.6 229.131 6.628 229.187 6.684C229.243 6.74 229.271 6.808 229.271 6.888V7.692C229.271 7.772 229.243 7.84 229.187 7.896C229.131 7.952 229.063 7.98 228.983 7.98H225.515L225.323 9.936C225.467 9.84 225.659 9.748 225.899 9.66C226.139 9.572 226.471 9.528 226.895 9.528C227.279 9.528 227.643 9.592 227.987 9.72C228.339 9.84 228.651 10.02 228.923 10.26C229.195 10.492 229.407 10.776 229.559 11.112C229.719 11.44 229.799 11.816 229.799 12.24C229.799 12.824 229.663 13.332 229.391 13.764C229.119 14.196 228.739 14.532 228.251 14.772C227.763 15.012 227.187 15.132 226.523 15.132ZM232.092 15C232.02 15 231.96 14.976 231.912 14.928C231.864 14.872 231.84 14.808 231.84 14.736C231.84 14.704 231.848 14.668 231.864 14.628L234.756 8.028H230.988C230.9 8.028 230.828 8 230.772 7.944C230.724 7.888 230.7 7.82 230.7 7.74V6.9C230.7 6.812 230.724 6.74 230.772 6.684C230.828 6.628 230.9 6.6 230.988 6.6H236.256C236.344 6.6 236.412 6.628 236.46 6.684C236.516 6.74 236.544 6.812 236.544 6.9V7.644C236.544 7.756 236.532 7.852 236.508 7.932C236.492 8.004 236.468 8.08 236.436 8.16L233.568 14.712C233.544 14.768 233.5 14.832 233.436 14.904C233.38 14.968 233.296 15 233.184 15H232.092ZM240.774 10.8C240.694 10.8 240.626 10.772 240.57 10.716C240.514 10.66 240.486 10.592 240.486 10.512V9.372C240.486 9.284 240.514 9.212 240.57 9.156C240.626 9.1 240.694 9.072 240.774 9.072H241.962C242.05 9.072 242.122 9.1 242.178 9.156C242.234 9.212 242.262 9.284 242.262 9.372V10.512C242.262 10.592 242.234 10.66 242.178 10.716C242.122 10.772 242.05 10.8 241.962 10.8H240.774ZM240.774 15C240.694 15 240.626 14.972 240.57 14.916C240.514 14.86 240.486 14.792 240.486 14.712V13.572C240.486 13.484 240.514 13.412 240.57 13.356C240.626 13.3 240.694 13.272 240.774 13.272H241.962C242.05 13.272 242.122 13.3 242.178 13.356C242.234 13.412 242.262 13.484 242.262 13.572V14.712C242.262 14.792 242.234 14.86 242.178 14.916C242.122 14.972 242.05 15 241.962 15H240.774ZM250.625 15C250.545 15 250.477 14.972 250.421 14.916C250.365 14.86 250.337 14.792 250.337 14.712V13.176H246.533C246.445 13.176 246.373 13.148 246.317 13.092C246.269 13.036 246.245 12.968 246.245 12.888V12.072C246.245 12.024 246.253 11.968 246.269 11.904C246.293 11.832 246.329 11.768 246.377 11.712L249.917 6.804C250.021 6.668 250.169 6.6 250.361 6.6H251.669C251.749 6.6 251.817 6.628 251.873 6.684C251.929 6.74 251.957 6.808 251.957 6.888V11.76H253.025C253.121 11.76 253.193 11.788 253.241 11.844C253.297 11.892 253.325 11.96 253.325 12.048V12.888C253.325 12.968 253.297 13.036 253.241 13.092C253.185 13.148 253.117 13.176 253.037 13.176H251.957V14.712C251.957 14.792 251.929 14.86 251.873 14.916C251.817 14.972 251.749 15 251.669 15H250.625ZM247.913 11.808H250.373V8.34L247.913 11.808ZM257.445 15.132C256.757 15.132 256.177 15.02 255.705 14.796C255.233 14.564 254.873 14.264 254.625 13.896C254.385 13.528 254.257 13.136 254.241 12.72C254.233 12.648 254.253 12.592 254.301 12.552C254.357 12.504 254.421 12.48 254.493 12.48H255.609C255.697 12.48 255.769 12.5 255.825 12.54C255.889 12.572 255.937 12.632 255.969 12.72C256.049 12.96 256.161 13.156 256.305 13.308C256.457 13.46 256.629 13.572 256.821 13.644C257.021 13.716 257.229 13.752 257.445 13.752C257.733 13.752 257.993 13.696 258.225 13.584C258.465 13.464 258.657 13.288 258.801 13.056C258.945 12.824 259.017 12.54 259.017 12.204C259.017 11.908 258.949 11.652 258.813 11.436C258.677 11.22 258.489 11.052 258.249 10.932C258.017 10.804 257.749 10.74 257.445 10.74C257.221 10.74 257.037 10.768 256.893 10.824C256.749 10.88 256.625 10.944 256.521 11.016C256.425 11.088 256.337 11.152 256.257 11.208C256.185 11.264 256.101 11.292 256.005 11.292H254.901C254.829 11.292 254.765 11.268 254.709 11.22C254.661 11.164 254.637 11.1 254.637 11.028L255.057 6.924C255.065 6.82 255.101 6.74 255.165 6.684C255.229 6.628 255.305 6.6 255.393 6.6H259.905C259.985 6.6 260.053 6.628 260.109 6.684C260.165 6.74 260.193 6.808 260.193 6.888V7.692C260.193 7.772 260.165 7.84 260.109 7.896C260.053 7.952 259.985 7.98 259.905 7.98H256.437L256.245 9.936C256.389 9.84 256.581 9.748 256.821 9.66C257.061 9.572 257.393 9.528 257.817 9.528C258.201 9.528 258.565 9.592 258.909 9.72C259.261 9.84 259.573 10.02 259.845 10.26C260.117 10.492 260.329 10.776 260.481 11.112C260.641 11.44 260.721 11.816 260.721 12.24C260.721 12.824 260.585 13.332 260.313 13.764C260.041 14.196 259.661 14.532 259.173 14.772C258.685 15.012 258.109 15.132 257.445 15.132Z" fill="#9CA4AB"/>
</svg>
