<svg width="25" height="24" viewBox="0 0 25 24" fill="none" xmlns="http://www.w3.org/2000/svg">
<path d="M21.6 11.9999C21.6 17.0257 17.5258 21.0999 12.5 21.0999C7.4742 21.0999 3.39999 17.0257 3.39999 11.9999C3.39999 6.97411 7.4742 2.8999 12.5 2.8999C17.5258 2.8999 21.6 6.97411 21.6 11.9999ZM17.3021 10.7978L13.7021 7.19782C13.0382 6.53393 11.9618 6.53393 11.2979 7.19782L7.69791 10.7978C7.03402 11.4617 7.03402 12.5381 7.69791 13.202C8.3618 13.8659 9.43818 13.8659 10.1021 13.202L10.8 12.5041L10.8 15.5999C10.8 16.5388 11.5611 17.2999 12.5 17.2999C13.4389 17.2999 14.2 16.5388 14.2 15.5999V12.5041L14.8979 13.202C15.5618 13.8659 16.6382 13.8659 17.3021 13.202C17.966 12.5381 17.966 11.4617 17.3021 10.7978Z" fill="#28262D" stroke="#28262D"/>
</svg>
