<svg width="25" height="24" viewBox="0 0 25 24" fill="none" xmlns="http://www.w3.org/2000/svg">
<path d="M21.6 11.9999C21.6 17.0257 17.5258 21.0999 12.5 21.0999C7.4742 21.0999 3.39999 17.0257 3.39999 11.9999C3.39999 6.97411 7.4742 2.8999 12.5 2.8999C17.5258 2.8999 21.6 6.97411 21.6 11.9999ZM14.2 8.3999C14.2 7.46102 13.4389 6.6999 12.5 6.6999C11.5611 6.6999 10.8 7.46102 10.8 8.3999V11.4957L10.1021 10.7978C9.43818 10.1339 8.3618 10.1339 7.69791 10.7978C7.03402 11.4617 7.03402 12.5381 7.69791 13.202L11.2979 16.802C11.9618 17.4659 13.0382 17.4659 13.7021 16.802L17.3021 13.202C17.966 12.5381 17.966 11.4617 17.3021 10.7978C16.6382 10.1339 15.5618 10.1339 14.8979 10.7978L14.2 11.4957V8.3999Z" fill="#28262D" stroke="#28262D"/>
</svg>
