<svg width="32" height="32" viewBox="0 0 32 32" fill="none" xmlns="http://www.w3.org/2000/svg">
<rect width="32" height="32" rx="16" fill="#28262D"/>
<path d="M13.425 23.2248C13.2667 23.2248 13.1084 23.1664 12.9834 23.0414C12.7417 22.7998 12.7417 22.3998 12.9834 22.1581L18.4167 16.7248C18.8167 16.3248 18.8167 15.6748 18.4167 15.2748L12.9834 9.84144C12.7417 9.59977 12.7417 9.19977 12.9834 8.95811C13.225 8.71644 13.625 8.71644 13.8667 8.95811L19.3 14.3914C19.725 14.8164 19.9667 15.3914 19.9667 15.9998C19.9667 16.6081 19.7334 17.1831 19.3 17.6081L13.8667 23.0414C13.7417 23.1581 13.5834 23.2248 13.425 23.2248Z" fill="white"/>
</svg>
