<svg width="32" height="32" viewBox="0 0 32 32" fill="none" xmlns="http://www.w3.org/2000/svg">
<rect width="32" height="32" rx="16" fill="#28262D"/>
<path d="M19.344 8.77669C19.5023 8.77669 19.6607 8.83503 19.7857 8.96003C20.0273 9.20169 20.0273 9.60169 19.7857 9.84336L14.3523 15.2767C13.9523 15.6767 13.9523 16.3267 14.3523 16.7267L19.7857 22.16C20.0273 22.4017 20.0273 22.8017 19.7857 23.0434C19.544 23.285 19.144 23.285 18.9023 23.0434L13.469 17.61C13.044 17.185 12.8023 16.61 12.8023 16.0017C12.8023 15.3934 13.0357 14.8184 13.469 14.3934L18.9023 8.96003C19.0273 8.84336 19.1857 8.77669 19.344 8.77669Z" fill="white"/>
</svg>
